<?xml version="1.0" encoding="utf-8"?>
<!-- Generator: Adobe Illustrator 24.1.0, SVG Export Plug-In . SVG Version: 6.00 Build 0)  -->
<svg version="1.1" id="Capa_1" xmlns="http://www.w3.org/2000/svg" xmlns:xlink="http://www.w3.org/1999/xlink" x="0px" y="0px"
	 viewBox="0 0 512 512" style="enable-background:new 0 0 512 512;" xml:space="preserve">
<style type="text/css">
	.st0{fill:#FFFFFF;}
</style>
<path class="st0" d="M138.7,512c-2.6,0-5.3-1-7.4-3c-4.2-4.1-4.4-10.8-0.3-15.1l227.6-238L131,18c-4.1-4.3-3.9-11,0.3-15.1
	c4.2-4.1,11-3.9,15.1,0.3L381,248.6c3.9,4.1,3.9,10.6,0,14.8L146.4,508.7C144.3,510.9,141.5,512,138.7,512z"/>
<path class="st0" d="M138.7,512c-2.6,0-5.3-1-7.4-3c-4.2-4.1-4.4-10.8-0.3-15.1l227.6-238L131,18c-4.1-4.3-3.9-11,0.3-15.1
	c4.2-4.1,11-3.9,15.1,0.3L381,248.6c3.9,4.1,3.9,10.6,0,14.8L146.4,508.7C144.3,510.9,141.5,512,138.7,512z"/>
</svg>
