<?xml version="1.0" encoding="utf-8"?>
<!-- Generator: Adobe Illustrator 24.1.0, SVG Export Plug-In . SVG Version: 6.00 Build 0)  -->
<svg version="1.1" id="Layer_1" xmlns="http://www.w3.org/2000/svg" xmlns:xlink="http://www.w3.org/1999/xlink" x="0px" y="0px"
	 viewBox="0 0 540 540" style="enable-background:new 0 0 540 540;" xml:space="preserve">
<style type="text/css">
	.st0{enable-background:new    ;}
	.st1{fill:#FFFFFF;}
</style>
<g class="st0">
	<path class="st1" d="M153.3,420.3v-9.9c8.7-4.3,13.5-7,14.5-8.1s1.8-2.9,2.3-5.6c0.8-4.2,1.6-13.1,2.2-26.8
		c0.6-13.7,0.9-24.1,0.9-31.2V211.8c0-13.7-0.4-29.9-1.3-48.4c-0.6-11.6-1.5-18.9-2.9-21.7c-1-1.8-2.5-3.2-4.4-4
		c-4.6-2-14.2-3-28.8-3.2v-13.3c4.6,0.3,10.4,0.4,17.5,0.4l43.8,1.1l77.4-1.9c20.5,0,36.3,2.1,47.3,6.3c11.1,4.2,19.7,11,26,20.5
		c6.2,9.5,9.4,20,9.4,31.6c0,9.2-1.9,17.9-5.6,26.1c-3.7,8.1-8.7,15.2-14.9,21.1c-6.2,6-13.2,10.8-20.8,14.5
		c-7.6,3.7-17.6,7.1-30,10.2c16.4,1.5,29.7,3.8,39.8,6.8c10.1,3,18.5,7.5,25.3,13.5s12,13.2,15.5,21.8c3.5,8.6,5.3,18.1,5.3,28.6
		c0,20.8-6.3,39.1-18.8,54.8c-12.6,15.8-28.7,27.5-48.5,35.1c-14.7,5.6-32.2,8.4-52.4,8.4l-61-1.7
		C184.4,418.6,171.8,419.1,153.3,420.3z M213.5,245.2c8,0.4,15,0.6,21,0.6c17.4,0,30.8-1.3,40.2-4c9.4-2.7,16.8-6.2,21.9-10.5
		c5.2-4.3,9.5-10.2,12.9-17.6c3.4-7.4,5.1-16.1,5.1-26c0-17.5-5.6-30.1-16.7-37.9s-27.4-11.7-48.8-11.7c-11.9,0-23.2,1.1-33.8,3.1
		c-1.3,11.6-1.9,29.6-1.9,54v50H213.5z M214.1,398.6c10.5,2.5,21.6,3.8,33.2,3.8c18.5,0,33.4-2.8,44.7-8.5s20.1-14.3,26.1-25.8
		c6.1-11.5,9.1-24.7,9.1-39.6c0-14.7-2.9-27.1-8.6-37.1s-14.3-17.5-25.7-22.3c-11.4-4.8-30.2-7.3-56.4-7.3c-6,0-13.7,0.3-23.1,0.8
		v79.7C213.5,350.1,213.7,368.9,214.1,398.6z"/>
</g>
<g class="st0">
	<path class="st1" d="M417.3,398.8c3.1,0,5.8,1.1,7.9,3.3c2.1,2.2,3.2,4.8,3.2,7.9s-1.1,5.7-3.3,7.9s-4.8,3.3-7.9,3.3
		s-5.8-1.1-7.9-3.3c-2.2-2.2-3.3-4.8-3.3-7.9s1.1-5.8,3.3-7.9C411.5,399.9,414.2,398.8,417.3,398.8z"/>
</g>
<g id="ll" class="st0">
	<path class="st1" d="M223.1,449.6V435l6.4-0.2c1-0.2,1.8-0.8,2.3-1.9s0.9-2.5,1.2-4.1c0.5-3.3,0.8-9.3,0.9-17.8
		c0-2.2,0.2-26.2,0.5-72.1V234.6c0-28-0.1-56.8-0.4-86.6c-0.2-20.1-0.4-31.3-0.8-33.7c-0.2-1.7-0.6-2.8-1.1-3.5
		c-0.7-1.2-3.8-1.8-9.4-1.8V94.2c10.3-4.7,17.5-10.5,21.5-17.6c0.6-1,1-1.5,1.4-1.5c0.3,0,0.6,0.4,0.8,1.1c0.2,0.8,0.3,1.8,0.3,3.1
		c0,1.2,0,2.8-0.1,5l-0.1,8.3c-0.2,30-0.4,55.5-0.4,76.6l-0.1,39.2v130.3c0.2,43.5,0.4,67.1,0.4,70.6c0,8.4,0.3,14.5,0.8,18.3
		c0.2,1.5,0.5,2.8,0.8,3.9s0.9,2,1.6,2.6c0.3,0.2,2.8,0.4,7.6,0.8v14.6c-6.2-1.3-11.7-2-16.4-2C236.3,447.6,230.4,448.3,223.1,449.6
		z"/>
	<path class="st1" d="M263.9,449.6V435l6.4-0.2c1-0.2,1.8-0.8,2.3-1.9s0.9-2.5,1.2-4.1c0.5-3.3,0.8-9.3,0.9-17.8
		c0-2.2,0.2-26.2,0.5-72.1V234.6c0-28-0.1-56.8-0.4-86.6c-0.2-20.1-0.4-31.3-0.8-33.7c-0.2-1.7-0.6-2.8-1.1-3.5
		c-0.7-1.2-3.8-1.8-9.4-1.8V94.2c10.3-4.7,17.5-10.5,21.5-17.6c0.6-1,1-1.5,1.4-1.5c0.3,0,0.6,0.4,0.8,1.1c0.2,0.8,0.3,1.8,0.3,3.1
		c0,1.2,0,2.8-0.1,5l-0.1,8.3c-0.2,30-0.4,55.5-0.4,76.6l-0.1,39.2v130.3c0.2,43.5,0.4,67.1,0.4,70.6c0,8.4,0.3,14.5,0.8,18.3
		c0.2,1.5,0.5,2.8,0.8,3.9s0.9,2,1.6,2.6c0.3,0.2,2.8,0.4,7.6,0.8v14.6c-6.2-1.3-11.7-2-16.4-2C277.1,447.6,271.2,448.3,263.9,449.6
		z"/>
</g>
</svg>
