<?xml version="1.0" encoding="utf-8"?>
<!-- Generator: Adobe Illustrator 24.1.0, SVG Export Plug-In . SVG Version: 6.00 Build 0)  -->
<svg version="1.1" id="Capa_1" xmlns="http://www.w3.org/2000/svg" xmlns:xlink="http://www.w3.org/1999/xlink" x="0px" y="0px"
	 viewBox="0 0 512 512" style="enable-background:new 0 0 512 512;" xml:space="preserve">
<style type="text/css">
	.st0{fill:#FFFFFF;}
</style>
<path class="st0" d="M256,384c-2.7,0-5.3-1-7.4-3L3.3,146.4c-4.2-4.1-4.4-10.8-0.3-15.1C7,127,13.8,126.9,18,131l238,227.6L494,131
	c4.3-4.1,11-3.9,15.1,0.3c4.1,4.3,3.9,11-0.3,15.1L263.4,381C261.3,383,258.7,384,256,384z"/>
<path class="st0" d="M256,384c-2.7,0-5.3-1-7.4-3L3.3,146.4c-4.2-4.1-4.4-10.8-0.3-15.1C7,127,13.8,126.9,18,131l238,227.6L494,131
	c4.3-4.1,11-3.9,15.1,0.3c4.1,4.3,3.9,11-0.3,15.1L263.4,381C261.3,383,258.7,384,256,384z"/>
</svg>
