<?xml version="1.0" encoding="utf-8"?>
<!-- Generator: Adobe Illustrator 24.1.0, SVG Export Plug-In . SVG Version: 6.00 Build 0)  -->
<svg version="1.1" id="Capa_1" xmlns="http://www.w3.org/2000/svg" xmlns:xlink="http://www.w3.org/1999/xlink" x="0px" y="0px"
	 viewBox="0 0 512 512" style="enable-background:new 0 0 512 512;" xml:space="preserve">
<style type="text/css">
	.st0{fill:#FFFFFF;}
</style>
<path class="st0" d="M373.3,512c-2.8,0-5.6-1.1-7.7-3.3L131,263.4c-3.9-4.1-3.9-10.6,0-14.8L365.6,3.3c4.1-4.2,10.9-4.4,15.1-0.3
	C385,7,385.1,13.8,381,18L153.4,256L381,494c4.1,4.3,3.9,11-0.3,15.1C378.6,511,376,512,373.3,512z"/>
<path class="st0" d="M373.3,512c-2.8,0-5.6-1.1-7.7-3.3L131,263.4c-3.9-4.1-3.9-10.6,0-14.8L365.6,3.3c4.1-4.2,10.9-4.4,15.1-0.3
	C385,7,385.1,13.8,381,18L153.4,256L381,494c4.1,4.3,3.9,11-0.3,15.1C378.6,511,376,512,373.3,512z"/>
</svg>
