<?xml version="1.0" encoding="utf-8"?>
<!-- Generator: Adobe Illustrator 24.1.0, SVG Export Plug-In . SVG Version: 6.00 Build 0)  -->
<svg version="1.1" id="Layer_1" xmlns="http://www.w3.org/2000/svg" xmlns:xlink="http://www.w3.org/1999/xlink" x="0px" y="0px"
	 viewBox="0 0 100 125" style="enable-background:new 0 0 100 125;" xml:space="preserve">
<style type="text/css">
	.st0{fill:#FFFFFF;}
</style>
<path class="st0" d="M50,93.6C25.9,93.6,6.4,74.1,6.4,50C6.4,25.9,25.9,6.4,50,6.4c24.1,0,43.6,19.5,43.6,43.6c0,0,0,0,0,0
	C93.6,74.1,74.1,93.6,50,93.6z M50,8.1C26.9,8.1,8.1,26.9,8.1,50S26.9,91.9,50,91.9S91.9,73.1,91.9,50l0,0
	C91.9,26.9,73.1,8.1,50,8.1z"/>
<path class="st0" d="M41.6,50.6l7.8,7c0.1,0.1,0.3,0.2,0.5,0.2h0.1l0,0c0.1,0,0.3-0.1,0.4-0.2l7.8-7c0.2-0.1,0.3-0.3,0.3-0.5
	c0-0.2,0-0.4-0.2-0.6c-0.2-0.2-0.4-0.3-0.6-0.3c-0.2,0-0.3,0.1-0.5,0.2c0,0-0.1,0-0.1,0.1l-6.5,5.8v-21c0-0.2-0.1-0.4-0.2-0.6
	c-0.1-0.2-0.3-0.2-0.6-0.2l0,0c-0.4,0-0.8,0.3-0.8,0.8v21l-6.5-5.8c-0.1-0.1-0.3-0.2-0.6-0.2c-0.2,0-0.4,0.1-0.5,0.2
	C41.2,49.8,41.2,50.3,41.6,50.6L41.6,50.6z"/>
<path class="st0" d="M69.8,56.4c-0.1-0.2-0.3-0.2-0.6-0.2l0,0c-0.4,0-0.8,0.3-0.8,0.8v7c0,0.6-0.4,1-1,1c0,0,0,0,0,0H32.5
	c-0.6,0-1-0.4-1-1v-7c0-0.2-0.1-0.4-0.2-0.6c-0.1-0.2-0.3-0.2-0.5-0.2h-0.1C30.3,56.3,30,56.6,30,57v7c0,1.4,1.1,2.5,2.5,2.5
	c0,0,0,0,0,0h34.9c1.4,0,2.5-1.1,2.5-2.5l0,0v-7C70,56.8,69.9,56.6,69.8,56.4z"/>
</svg>
